# xmcd
#
# Track frame offsets:
#	150
#	13342
#	37030
#	58780
#	82650
#	106540
#	121080
#	145085
#	151092
#	169837
#	187540
#	205522
#	217752
#	233880
#	258050
#	281367
#	300432
#	318505
#
# Disc length: 4431 seconds
#
# Revision: 1
# Processed by: cddbd v1.5.1PL0 Copyright (c) Steve Scherf et al.
# Submitted via: CDex 1.50Beta5
#
DISCID=d3114d12
DTITLE=Various Artist - FURUSATO encore
DYEAR=1900
DGENRE=Other
TTITLE0=千住明/日本映像の20世紀
TTITLE1=Various Artists/涙そうそう
TTITLE2=松居慶子/Deep Blue
TTITLE3=喜多郎/シルクロードのテーマ
TTITLE4=藤原道山/楓
TTITLE5=幸田聡子/いつも何度でも
TTITLE6=Various Artists/遠野物語
TTITLE7=大野雄二/小さな旅
TTITLE8=久石譲/銀河鉄道の夜
TTITLE9=姫神/奥のの細道
TTITLE10=天山/ヒマラヤ杉のてっぺんで
TTITLE11=加羽沢美濃/チルソクの約束
TTITLE12=沢知恵/こころ
TTITLE13=Various Artists/島唄
TTITLE14=村松健/片恋
TTITLE15=高嶋ちさ子/G線上のアリア
TTITLE16=アナンディン・バヤラト/地上の星
TTITLE17=千住明/Song for Nature
EXTD=
EXTT0=
EXTT1=
EXTT2=
EXTT3=
EXTT4=
EXTT5=
EXTT6=
EXTT7=
EXTT8=
EXTT9=
EXTT10=
EXTT11=
EXTT12=
EXTT13=
EXTT14=
EXTT15=
EXTT16=
EXTT17=
PLAYORDER=
